<?xml version="1.0" encoding="UTF-8"?>
<!DOCTYPE svg PUBLIC "-//W3C//DTD SVG 1.1//EN" "http://www.w3.org/Graphics/SVG/1.1/DTD/svg11.dtd">
<svg xmlns="http://www.w3.org/2000/svg" version="1.1" width="364px" height="138px" style="shape-rendering:geometricPrecision; text-rendering:geometricPrecision; image-rendering:optimizeQuality; fill-rule:evenodd; clip-rule:evenodd" xmlns:xlink="http://www.w3.org/1999/xlink">
<g><path style="opacity:1" fill="#000000" d="M -0.5,-0.5 C 120.833,-0.5 242.167,-0.5 363.5,-0.5C 363.5,45.5 363.5,91.5 363.5,137.5C 242.167,137.5 120.833,137.5 -0.5,137.5C -0.5,91.5 -0.5,45.5 -0.5,-0.5 Z"/></g>
<g><path style="opacity:1" fill="#737373" d="M 134.5,29.5 C 130.167,29.5 125.833,29.5 121.5,29.5C 121.833,37.2576 121.499,44.2576 120.5,50.5C 120.5,43.1667 120.5,35.8333 120.5,28.5C 125.363,28.1805 130.03,28.5139 134.5,29.5 Z"/></g>
<g><path style="opacity:1" fill="#fafafa" d="M 134.5,29.5 C 134.5,53.8333 134.5,78.1667 134.5,102.5C 129.261,103.037 124.261,102.37 119.5,100.5C 104.998,107.417 92.498,104.751 82,92.5C 72.3183,74.392 76.1517,59.892 93.5,49C 102.742,45.4317 111.742,45.9317 120.5,50.5C 121.499,44.2576 121.833,37.2576 121.5,29.5C 125.833,29.5 130.167,29.5 134.5,29.5 Z"/></g>
<g><path style="opacity:1" fill="#f0f0f0" d="M 141.5,28.5 C 146.167,28.5 150.833,28.5 155.5,28.5C 155.5,33.1667 155.5,37.8333 155.5,42.5C 150.833,42.5 146.167,42.5 141.5,42.5C 141.5,37.8333 141.5,33.1667 141.5,28.5 Z"/></g>
<g><path style="opacity:1" fill="#fafafa" d="M 204.5,100.5 C 184.424,108.637 170.257,102.637 162,82.5C 159.866,61.7382 169.033,49.7382 189.5,46.5C 194.884,46.5739 199.884,47.9072 204.5,50.5C 204.56,51.0431 204.893,51.3764 205.5,51.5C 206.497,44.1968 206.831,36.8635 206.5,29.5C 210.5,29.5 214.5,29.5 218.5,29.5C 218.5,53.5 218.5,77.5 218.5,101.5C 213.915,102.013 209.582,101.346 205.5,99.5C 204.893,99.6236 204.56,99.9569 204.5,100.5 Z"/></g>
<g><path style="opacity:1" fill="#c1c1c1" d="M 204.5,100.5 C 204.56,99.9569 204.893,99.6236 205.5,99.5C 209.582,101.346 213.915,102.013 218.5,101.5C 218.5,77.5 218.5,53.5 218.5,29.5C 214.5,29.5 210.5,29.5 206.5,29.5C 206.831,36.8635 206.497,44.1968 205.5,51.5C 204.893,51.3764 204.56,51.0431 204.5,50.5C 205.492,43.3524 205.825,36.0191 205.5,28.5C 210.167,28.5 214.833,28.5 219.5,28.5C 219.5,53.1667 219.5,77.8333 219.5,102.5C 214.193,103.026 209.193,102.36 204.5,100.5 Z"/></g>
<g><path style="opacity:1" fill="#f9f9f9" d="M 57.5,50.5 C 61.8536,48.652 66.5203,47.9853 71.5,48.5C 71.5,66.5 71.5,84.5 71.5,102.5C 66.2612,103.037 61.2612,102.37 56.5,100.5C 37.0497,108.184 23.2164,102.517 15,83.5C 11.87,58.2945 23.0366,46.1278 48.5,47C 51.6469,47.8806 54.6469,49.0472 57.5,50.5 Z"/></g>
<g><path style="opacity:1" fill="#fdfdfd" d="M 141.5,46.5 C 146.167,46.5 150.833,46.5 155.5,46.5C 155.5,65.1667 155.5,83.8333 155.5,102.5C 150.833,102.5 146.167,102.5 141.5,102.5C 141.5,83.8333 141.5,65.1667 141.5,46.5 Z"/></g>
<g><path style="opacity:1" fill="#fbfbfb" d="M 268.5,48.5 C 272.833,48.5 277.167,48.5 281.5,48.5C 281.5,66.1667 281.5,83.8333 281.5,101.5C 277.5,101.5 273.5,101.5 269.5,101.5C 269.754,99.5992 269.42,98.9326 268.5,99.5C 248.735,108.364 234.235,103.031 225,83.5C 221.915,61.6015 231.249,49.2682 253,46.5C 258.25,46.3053 263.083,47.6387 267.5,50.5C 268.298,50.0431 268.631,49.3764 268.5,48.5 Z"/></g>
<g><path style="opacity:1" fill="#f8f8f8" d="M 303.5,46.5 C 309.842,46.3338 316.175,46.5005 322.5,47C 331.638,49.7727 335.971,55.9393 335.5,65.5C 331.167,65.5 326.833,65.5 322.5,65.5C 323.093,58.5937 319.926,55.5937 313,56.5C 306.434,55.5696 303.434,58.2363 304,64.5C 311.236,67.2159 318.736,69.0492 326.5,70C 336.761,73.6907 340.261,80.8574 337,91.5C 334.793,96.7037 330.96,100.204 325.5,102C 316.385,104.277 307.385,103.944 298.5,101C 291.425,97.3543 288.092,91.5209 288.5,83.5C 293.167,83.5 297.833,83.5 302.5,83.5C 301.429,88.5976 303.429,91.7643 308.5,93C 312.167,93.6667 315.833,93.6667 319.5,93C 324.7,90.8623 325.7,87.529 322.5,83C 316.299,81.0988 309.965,79.7655 303.5,79C 291.317,75.4657 287.484,67.6324 292,55.5C 294.683,50.922 298.517,47.922 303.5,46.5 Z"/></g>
<g><path style="opacity:1" fill="#9f9f9f" d="M 71.5,48.5 C 66.5203,47.9853 61.8536,48.652 57.5,50.5C 57.5,49.5 57.5,48.5 57.5,47.5C 62.3633,47.1805 67.03,47.5139 71.5,48.5 Z"/></g>
<g><path style="opacity:1" fill="#a9a9a9" d="M 268.5,48.5 C 272.97,47.5139 277.637,47.1805 282.5,47.5C 282.5,65.8333 282.5,84.1667 282.5,102.5C 277.833,102.5 273.167,102.5 268.5,102.5C 268.5,101.5 268.5,100.5 268.5,99.5C 269.42,98.9326 269.754,99.5992 269.5,101.5C 273.5,101.5 277.5,101.5 281.5,101.5C 281.5,83.8333 281.5,66.1667 281.5,48.5C 277.167,48.5 272.833,48.5 268.5,48.5 Z"/></g>
<g><path style="opacity:1" fill="#030303" d="M 36.5,59.5 C 53.3705,58.2044 60.2039,65.8711 57,82.5C 48.3916,93.6026 39.0583,94.2693 29,84.5C 23.7351,73.6796 26.2351,65.3463 36.5,59.5 Z"/></g>
<g><path style="opacity:1" fill="#030303" d="M 100.5,59.5 C 115.335,58.8335 122.168,65.8335 121,80.5C 115.538,91.0984 107.372,93.9317 96.5,89C 89.203,82.6619 87.703,75.1619 92,66.5C 94.4412,63.5464 97.2745,61.2131 100.5,59.5 Z"/></g>
<g><path style="opacity:1" fill="#030303" d="M 184.5,59.5 C 203.223,59.2858 209.389,67.9525 203,85.5C 192.118,94.5572 182.785,93.2239 175,81.5C 172.486,71.5416 175.653,64.2082 184.5,59.5 Z"/></g>
<g><path style="opacity:1" fill="#020202" d="M 247.5,59.5 C 262.984,58.1498 269.817,65.1498 268,80.5C 264.184,88.8895 257.684,92.3895 248.5,91C 238.397,86.625 234.897,79.125 238,68.5C 240.43,64.5657 243.597,61.5657 247.5,59.5 Z"/></g>
</svg>
