<svg width="100%" height="100%" viewBox="0 0 64 26" fill="none" xmlns="http://www.w3.org/2000/svg"><g clip-path="url(#clip0_4007_2213)"><path d="M39.0925 5.59367H41.9238V16.4486H39.0925V5.59367ZM32.0933 -1.08456C37.0819 -1.08456 41.8663 -3.0824 45.3938 -6.63857C48.9214 -10.1948 50.9031 -15.018 50.9031 -20.0472C50.9027 -21.008 50.831 -21.9674 50.6886 -22.9174H33.098L27.388 -17.1519H37.363C36.8648 -16.2253 36.1351 -15.4461 35.2462 -14.8913C34.3573 -14.3365 33.3401 -14.0254 32.2953 -13.9888C31.2505 -13.9523 30.2143 -14.1915 29.2894 -14.6828C28.3645 -15.1741 27.583 -15.9005 27.0222 -16.79L22.8114 -12.545C24.1975 -10.8014 26.0394 -9.48308 28.1293 -8.73888C30.2191 -7.99467 32.4737 -7.85419 34.6386 -8.33329C36.8035 -8.81239 38.7924 -9.89199 40.3809 -11.4502C41.9694 -13.0085 43.0943 -14.9833 43.6284 -17.1519H44.8544C44.2307 -14.3481 42.7166 -11.826 40.5419 -9.9685C38.3673 -8.11097 35.6509 -7.01944 32.805 -6.85959C29.9591 -6.69975 27.1392 -7.48032 24.7733 -9.08281C22.4075 -10.6853 20.6248 -13.0222 19.696 -15.7388C18.7672 -18.4554 18.7429 -21.4033 19.6269 -24.1351C20.5108 -26.8668 22.2547 -29.2332 24.5939 -30.8751C26.9331 -32.517 29.7397 -33.3446 32.5878 -33.2324C35.436 -33.1202 38.17 -32.0743 40.3749 -30.2534L44.439 -34.3505C42.1468 -36.3576 39.4066 -37.7754 36.4526 -38.4828C33.4987 -39.1902 30.4188 -39.1661 27.476 -38.4126C24.5333 -37.6591 21.8153 -36.1986 19.5542 -34.1559C17.2932 -32.1132 15.5562 -29.549 14.4919 -26.6824C13.4276 -23.8158 13.0675 -20.7321 13.4423 -17.6947C13.8172 -14.6573 14.9159 -11.7566 16.6446 -9.24035C18.3733 -6.72412 20.6806 -4.6672 23.3692 -3.24535C26.0579 -1.8235 29.0481 -1.079 32.0842 -1.07545L32.0933 -1.08456ZM14.7894 7.68773H8.87164L6.01099 10.5807H11.8294C11.5186 11.5409 10.9054 12.3725 10.083 12.9494C9.26057 13.5262 8.27389 13.8167 7.2728 13.7767C6.27172 13.7367 5.31094 13.3684 4.53639 12.7278C3.76185 12.0872 3.21587 11.2092 2.98138 10.2272C2.7469 9.24528 2.83673 8.213 3.23722 7.28721C3.63771 6.36141 4.32699 5.59268 5.20034 5.09779C6.0737 4.60289 7.08341 4.40887 8.07612 4.54521C9.06882 4.68154 9.99026 5.14078 10.7005 5.85315L12.7325 3.80461C11.468 2.53476 9.7933 1.76471 8.01313 1.63457C6.23296 1.50443 4.46559 2.02284 3.03256 3.09549C1.59954 4.16814 0.596079 5.72375 0.204744 7.47931C-0.186591 9.23487 0.0602021 11.0737 0.900226 12.6613C1.74025 14.2489 3.11768 15.4798 4.78193 16.13C6.44618 16.7801 8.28665 16.8065 9.96851 16.2041C11.6504 15.6017 13.0619 14.4107 13.9462 12.8478C14.8305 11.2848 15.1289 9.45376 14.7871 7.68773H14.7894ZM25.3695 21.1534C25.3695 22.3416 24.4777 23.161 23.1749 23.161H21.0796V25.8924H20.0749V19.1368H23.1772C24.4799 19.1368 25.3605 19.9562 25.3605 21.1625L25.3695 21.1534ZM24.3535 21.1534C24.3535 20.4706 23.8568 20.0153 23.071 20.0153H21.0796V22.3029H23.071C23.8477 22.312 24.3444 21.8681 24.3444 21.1625L24.3535 21.1534ZM16.2592 22.032L15.1777 21.859C14.3152 21.7134 13.9811 21.4539 13.9811 20.903C13.9811 20.3044 14.5659 19.8993 15.4374 19.8993C16.2401 19.9196 17.0125 20.2123 17.6297 20.7301L18.1851 19.9562C17.4035 19.3652 16.4528 19.0457 15.4758 19.0457C13.9811 19.0457 13.0034 19.8105 13.0034 20.9873C13.0034 21.9615 13.6085 22.5419 14.8345 22.7445L15.9634 22.9288C16.9388 23.0927 17.3181 23.3841 17.3181 23.9895C17.3181 24.6564 16.6566 25.1276 15.6902 25.1276C14.8571 25.1276 14.1098 24.7816 13.3828 24.0669L12.7686 24.7816C13.1443 25.1656 13.5917 25.4707 14.085 25.6794C14.5784 25.888 15.1078 25.996 15.6428 25.9971C17.2414 25.9971 18.3138 25.1663 18.3138 23.9212C18.3093 22.8628 17.6681 22.2733 16.2502 22.0411L16.2592 22.032ZM41.6438 1.53074C41.3807 1.26795 41.0353 1.10527 40.6665 1.07043C40.2978 1.03559 39.9284 1.13075 39.6215 1.33968C39.3145 1.54862 39.0889 1.8584 38.9831 2.21624C38.8773 2.57408 38.8979 2.95783 39.0413 3.30209C39.1847 3.64636 39.4421 3.92983 39.7696 4.1042C40.0972 4.27857 40.4745 4.33305 40.8374 4.25835C41.2003 4.18366 41.5263 3.9844 41.7598 3.69456C41.9933 3.40471 42.1199 3.0422 42.118 2.66881C42.117 2.45752 42.0737 2.24861 41.9907 2.0546C41.9077 1.8606 41.7866 1.68551 41.6348 1.53984L41.6438 1.53074ZM32.0933 -26.1063C33.2382 -26.1067 34.3591 -25.7748 35.3219 -25.1503L39.5328 -29.3953C37.5926 -30.9687 35.2114 -31.8882 32.7251 -32.0241C30.2389 -32.1599 27.773 -31.5053 25.6756 -30.1526C23.5781 -28.7998 21.955 -26.8173 21.0351 -24.4847C20.1153 -22.1521 19.9453 -19.5872 20.5491 -17.1519H26.8032C26.3045 -18.0747 26.0526 -19.1125 26.0722 -20.1633C26.0918 -21.214 26.3822 -22.2415 26.9149 -23.1448C27.4477 -24.0481 28.2044 -24.7961 29.1107 -25.3154C30.017 -25.8346 31.0418 -26.1072 32.0842 -26.1063H32.0933ZM50.7428 13.1163C50.5001 13.4583 50.1764 13.7337 49.8013 13.9175C49.3984 14.1116 48.9562 14.2082 48.5098 14.1998C48.2114 14.2136 47.9134 14.1651 47.6345 14.0574C47.3555 13.9497 47.1016 13.7851 46.8887 13.5738C46.6815 13.3515 46.5208 13.0894 46.4161 12.8032C46.3114 12.517 46.2648 12.2124 46.2791 11.9077V5.59367H43.4365V12.3242C43.4166 12.8981 43.5126 13.47 43.7187 14.0053C43.9248 14.5406 44.2367 15.028 44.6354 15.438C45.0351 15.842 45.513 16.1587 46.0393 16.3686C46.5656 16.5785 47.1291 16.677 47.6948 16.658C48.2579 16.6636 48.8176 16.5681 49.3475 16.3758C49.8522 16.1918 50.3213 15.9207 50.7338 15.5746V16.4486H53.5651V5.59367H50.7338L50.7428 13.1163ZM51.0341 22.032L49.9526 21.859C49.0901 21.7134 48.7537 21.4539 48.7537 20.903C48.7537 20.3044 49.3384 19.8993 50.21 19.8993C51.0128 19.9189 51.7855 20.2117 52.4023 20.7301L52.9577 19.9562C52.1761 19.3652 51.2254 19.0457 50.2483 19.0457C48.7559 19.0457 47.7783 19.8105 47.7783 20.9873C47.7783 21.9615 48.3811 22.5419 49.6071 22.7445L50.736 22.9288C51.7137 23.0927 52.0907 23.3841 52.0907 23.9895C52.0907 24.6564 51.4292 25.1276 50.4628 25.1276C49.6297 25.1276 48.8824 24.7816 48.1531 24.0669L47.5412 24.7816C47.9163 25.1657 48.3633 25.471 48.8563 25.6796C49.3493 25.8883 49.8785 25.9962 50.4132 25.9971C52.014 25.9971 53.0864 25.1663 53.0864 23.9212C53.0842 22.8628 52.4429 22.2733 51.025 22.0411L51.0341 22.032ZM63.1518 11.0109C62.5783 10.4692 61.7685 10.1217 60.7223 9.96843L58.6564 9.6566C58.2593 9.62909 57.8734 9.51161 57.5275 9.31289C57.4169 9.23857 57.3274 9.13657 57.2676 9.01687C57.2078 8.89718 57.1799 8.76389 57.1866 8.63005C57.1885 8.47357 57.232 8.32047 57.3127 8.18675C57.3933 8.05302 57.508 7.94357 57.6449 7.86982C58.0192 7.65863 58.4448 7.55768 58.8732 7.57847C59.4281 7.57899 59.9796 7.66653 60.5079 7.83795C61.0981 8.03712 61.6657 8.29883 62.2012 8.61867L63.5559 6.78637C62.8975 6.35047 62.1816 6.01026 61.429 5.77576C60.6854 5.54815 59.9122 5.43384 59.1351 5.43661C57.7714 5.43661 56.6831 5.7492 55.8703 6.37438C55.4803 6.66018 55.1654 7.03763 54.9529 7.47396C54.7405 7.91028 54.6368 8.3923 54.6511 8.87815C54.6343 9.26895 54.7003 9.65888 54.8447 10.0219C54.9891 10.385 55.2087 10.7128 55.4887 10.9836C56.0472 11.5117 56.8562 11.8592 57.9159 12.0261L59.984 12.3379C60.3485 12.3691 60.6998 12.4903 61.0068 12.6907C61.1092 12.768 61.1917 12.8689 61.2474 12.9849C61.3032 13.1009 61.3307 13.2287 61.3274 13.3576C61.3219 13.5372 61.2654 13.7113 61.1645 13.8594C61.0636 14.0075 60.9227 14.1233 60.7585 14.193C60.2851 14.4212 59.7632 14.5283 59.239 14.5048C58.6614 14.5028 58.0886 14.4004 57.5456 14.2021C56.909 13.967 56.3026 13.656 55.7393 13.2757L54.335 15.1717C54.9875 15.6813 55.731 16.0599 56.5251 16.287C57.4178 16.5482 58.3433 16.6778 59.2728 16.6717C59.9104 16.6768 60.5451 16.5855 61.1558 16.4008C61.6924 16.2423 62.1964 15.9879 62.6437 15.6497C63.0461 15.344 63.38 14.9562 63.6236 14.5116C63.8653 14.0757 63.9906 13.5839 63.9871 13.0845C64 12.6996 63.9314 12.3164 63.7858 11.9604C63.6402 11.6044 63.421 11.2838 63.1427 11.02L63.1518 11.0109ZM23.9629 13.3963L25.8233 15.1034C24.6113 16.1494 23.0584 16.7064 21.4635 16.6671C20.6786 16.674 19.9 16.5255 19.1718 16.2301C18.4894 15.955 17.8649 15.5518 17.3317 15.042C16.8 14.5234 16.3785 13.9013 16.0929 13.2134C15.8072 12.5255 15.6633 11.7862 15.6699 11.0405C15.6651 10.2874 15.8086 9.54079 16.0921 8.84401C16.5081 7.82309 17.2177 6.95105 18.1295 6.34014C19.0413 5.72923 20.1136 5.40742 21.2083 5.41613C21.9386 5.4118 22.6612 5.56711 23.3262 5.87136C23.9664 6.15897 24.543 6.57304 25.0218 7.0891C25.5091 7.62456 25.888 8.25085 26.1371 8.93278C26.411 9.6762 26.5479 10.4637 26.5413 11.2567V12.0056H18.5283C18.7067 12.6653 19.0994 13.2455 19.6437 13.6535C20.205 14.0732 20.8889 14.2926 21.5877 14.2772C22.0379 14.2817 22.4853 14.2046 22.9085 14.0496C23.3014 13.9086 23.6606 13.686 23.9629 13.3963ZM18.508 9.95705H23.7777C23.6155 9.34479 23.2731 8.79644 22.7956 8.38423C22.3415 7.98217 21.7562 7.76332 21.1519 7.76967C20.5412 7.7563 19.9465 7.96747 19.4789 8.36374C18.9974 8.77897 18.6577 9.33639 18.508 9.95705ZM41.0861 20.0336H43.441V25.8946H44.448V20.0336H46.8029V19.1368H41.0726L41.0861 20.0336ZM33.2831 22.5146C33.2885 23.2113 33.0886 23.8939 32.7087 24.476C32.3288 25.0581 31.7861 25.5133 31.1493 25.7841C30.5125 26.0549 29.8103 26.1291 29.1316 25.9971C28.453 25.8652 27.8285 25.5331 27.3373 25.043C26.846 24.5529 26.5102 23.9268 26.3723 23.244C26.2344 22.5613 26.3006 21.8527 26.5626 21.2079C26.8246 20.5632 27.2705 20.0113 27.8439 19.6224C28.4173 19.2334 29.0924 19.0248 29.7835 19.023C30.2417 19.0163 30.6965 19.1018 31.1215 19.2745C31.5464 19.4472 31.933 19.7037 32.2584 20.0288C32.5839 20.3539 32.8418 20.7412 33.0169 21.1681C33.1921 21.5949 33.2811 22.0527 33.2786 22.5146H33.2831ZM32.2581 22.5146C32.2457 22.0263 32.0908 21.5525 31.8128 21.1524C31.5349 20.7523 31.1461 20.4437 30.6952 20.265C30.2442 20.0863 29.7511 20.0456 29.2773 20.1478C28.8035 20.2501 28.3701 20.4908 28.0312 20.8399C27.6923 21.189 27.463 21.631 27.3718 22.1108C27.2807 22.5905 27.3318 23.0867 27.5187 23.5373C27.7057 23.988 28.0202 24.3731 28.423 24.6446C28.8258 24.9161 29.299 25.0619 29.7835 25.0638C30.1135 25.0661 30.4406 25.0013 30.7451 24.8733C31.0497 24.7452 31.3255 24.5566 31.5561 24.3186C31.7867 24.0806 31.9673 23.7982 32.0872 23.4882C32.207 23.1782 32.2636 22.8471 32.2536 22.5146H32.2581ZM34.7417 16.4577H37.5752V9.70667C37.5997 9.13551 37.5064 8.56545 37.3013 8.03246C37.0962 7.49948 36.7837 7.01514 36.3836 6.61004C35.9835 6.20494 35.5044 5.88788 34.9765 5.67886C34.4487 5.46983 33.8837 5.3734 33.317 5.39564C32.7577 5.38924 32.2015 5.48089 31.6733 5.66651C31.1721 5.84538 30.7065 6.11283 30.2983 6.45633V5.59367H27.4715V16.4486H30.3028V8.93733C30.5455 8.59474 30.8691 8.31858 31.2443 8.13385C31.641 7.9431 32.076 7.84729 32.5155 7.85388C32.8137 7.8398 33.1116 7.88793 33.3906 7.99524C33.6695 8.10255 33.9235 8.26675 34.1366 8.47755C34.3427 8.69693 34.5029 8.95589 34.6076 9.23901C34.7124 9.52213 34.7595 9.82361 34.7462 10.1255L34.7417 16.4577ZM38.6025 22.988L40.0972 25.8946H38.9841L37.6001 23.12H35.7148V25.8924H34.7101V19.1368H37.7536C39.0857 19.1368 39.9866 19.9471 39.9866 21.1352C39.9898 21.5538 39.8566 21.9618 39.6073 22.2966C39.3581 22.6313 39.0066 22.8743 38.6071 22.988H38.6025ZM37.6633 22.2824C38.449 22.2824 38.966 21.8272 38.966 21.1443C38.966 20.4615 38.449 20.0062 37.6633 20.0062H35.7103V22.2642L37.6633 22.2824Z" fill="currentColor"></path></g><defs><clipPath id="clip0_4007_2213"><rect width="64" height="26" fill="currentColor"></rect></clipPath></defs></svg>