<?xml version="1.0" encoding="UTF-8"?>
<!DOCTYPE svg PUBLIC "-//W3C//DTD SVG 1.1//EN" "http://www.w3.org/Graphics/SVG/1.1/DTD/svg11.dtd">
<svg xmlns="http://www.w3.org/2000/svg" version="1.1" width="3840px" height="2160px" style="shape-rendering:geometricPrecision; text-rendering:geometricPrecision; image-rendering:optimizeQuality; fill-rule:evenodd; clip-rule:evenodd" xmlns:xlink="http://www.w3.org/1999/xlink">
<g><path style="opacity:1" fill="#005f22" d="M 457.5,373.5 C 691.5,373.333 925.5,373.5 1159.5,374C 1162.79,376.412 1163.96,379.579 1163,383.5C 1085.46,486.719 1007.29,589.552 928.5,692C 925.167,694 921.833,694 918.5,692C 904.163,678.825 888.83,666.991 872.5,656.5C 864.208,652.354 855.875,648.187 847.5,644C 837.417,640.528 827.417,636.862 817.5,633C 801.058,628.39 784.392,624.723 767.5,622C 741.129,619.812 714.795,620.145 688.5,623C 626.473,634.515 572.14,661.182 525.5,703C 450.284,773.403 407.118,860.237 396,963.5C 389.467,1074.9 421.8,1172.9 493,1257.5C 551.697,1324.29 624.197,1369.46 710.5,1393C 829.406,1419.01 940.406,1400.34 1043.5,1337C 1054.42,1329.75 1065.09,1322.08 1075.5,1314C 1082.92,1308.35 1089.92,1302.02 1096.5,1295C 1099.5,1293.83 1102.17,1292.17 1104.5,1290C 1120.7,1285.27 1130.7,1291.1 1134.5,1307.5C 1134.05,1312.73 1132.22,1317.39 1129,1321.5C 1036.61,1414.94 924.445,1470.11 792.5,1487C 710.095,1495.45 629.428,1485.78 550.5,1458C 391.303,1396.47 280.136,1286.3 217,1127.5C 178.975,1021.86 170.642,913.863 192,803.5C 218.431,678.311 273.097,567.978 356,472.5C 383.163,439.832 412.663,409.165 444.5,380.5C 448.758,377.873 453.092,375.54 457.5,373.5 Z"/></g>
<g><path style="opacity:1" fill="#005f22" d="M 2988.5,373.5 C 3002.95,371.829 3013.11,377.495 3019,390.5C 3019.33,407.167 3019.67,423.833 3020,440.5C 3028.25,455.282 3038.91,457.282 3052,446.5C 3053.2,443.911 3054.2,441.244 3055,438.5C 3055.33,423.167 3055.67,407.833 3056,392.5C 3062.58,375.795 3074.41,370.295 3091.5,376C 3110.84,391.522 3132.18,394.855 3155.5,386C 3178.3,382.152 3193.8,390.986 3202,412.5C 3202.84,419.567 3202.51,426.567 3201,433.5C 3196.54,443.298 3189.87,451.298 3181,457.5C 3169.27,472.376 3165.1,489.209 3168.5,508C 3165.59,524.912 3155.59,532.912 3138.5,532C 3135.76,531.197 3133.09,530.197 3130.5,529C 3122.2,524.513 3114.2,519.513 3106.5,514C 3101.11,511.384 3095.61,509.218 3090,507.5C 3084.21,508.311 3079.21,510.644 3075,514.5C 3073.67,518.312 3072.51,522.145 3071.5,526C 3072.26,532.988 3075.6,538.321 3081.5,542C 3090.2,546.681 3098.86,551.348 3107.5,556C 3126.36,566.555 3130.02,580.888 3118.5,599C 3111.05,602.943 3103.72,607.11 3096.5,611.5C 3082.06,623.455 3073.89,638.788 3072,657.5C 3063.69,675.049 3049.86,682.549 3030.5,680C 3016.29,676.796 3006.79,668.296 3002,654.5C 3000.61,642.606 2996.44,631.94 2989.5,622.5C 2986.71,618.546 2983.38,615.046 2979.5,612C 2970.42,607.712 2961.92,602.546 2954,596.5C 2945.72,575.551 2952.22,561.384 2973.5,554C 2980.54,549.149 2987.87,544.816 2995.5,541C 3005.74,531.498 3006.07,521.665 2996.5,511.5C 2987.65,506.62 2978.99,507.12 2970.5,513C 2960.73,519.37 2950.73,525.37 2940.5,531C 2927.9,534.467 2917.73,530.967 2910,520.5C 2908.22,516.002 2907.39,511.336 2907.5,506.5C 2909.1,495.528 2907.93,484.861 2904,474.5C 2901.06,469.627 2898.4,464.627 2896,459.5C 2890.33,454.167 2884.67,448.833 2879,443.5C 2868.06,423.728 2870.9,406.228 2887.5,391C 2891.29,389.607 2894.95,387.941 2898.5,386C 2905.5,384 2912.5,384 2919.5,386C 2923.36,387.732 2927.36,389.066 2931.5,390C 2946.39,392.521 2960.39,390.187 2973.5,383C 2978.19,379.322 2983.19,376.155 2988.5,373.5 Z"/></g>
<g><path style="opacity:1" fill="#005f22" d="M 1426.5,567.5 C 1480.17,567.333 1533.83,567.5 1587.5,568C 1589.11,569.36 1590.61,570.86 1592,572.5C 1593.33,763.458 1594,954.458 1594,1145.5C 1602.37,1168.97 1618.2,1175.8 1641.5,1166C 1654.79,1156.88 1659.29,1144.38 1655,1128.5C 1653.42,1124.33 1651.08,1120.66 1648,1117.5C 1647.21,1114.37 1647.54,1111.37 1649,1108.5C 1659.5,1102.75 1670.5,1098.08 1682,1094.5C 1684.23,1094.98 1686.39,1095.65 1688.5,1096.5C 1696.96,1132.46 1718.96,1155.63 1754.5,1166C 1772.48,1171.33 1790.15,1171.33 1807.5,1166C 1821.33,1159.83 1831.5,1150 1838,1136.5C 1847.01,1112.39 1841.85,1091.89 1822.5,1075C 1817.5,1071.33 1812.5,1067.67 1807.5,1064C 1790.24,1055.34 1772.91,1046.67 1755.5,1038C 1748.03,1033.36 1740.7,1028.53 1733.5,1023.5C 1726.86,1018.36 1720.69,1012.69 1715,1006.5C 1699.65,985.108 1693.32,961.108 1696,934.5C 1699.9,906.623 1712.4,883.457 1733.5,865C 1747.88,853.647 1764.22,846.314 1782.5,843C 1853.84,842.167 1925.17,842.333 1996.5,843.5C 1998.32,845.475 1999.32,847.809 1999.5,850.5C 1988.79,878.595 1976.96,906.262 1964,933.5C 1962.07,939.267 1959.74,944.933 1957,950.5C 1954.29,954.035 1950.79,955.202 1946.5,954C 1916.27,934.014 1883.93,926.348 1849.5,931C 1839.51,932.914 1830.68,937.081 1823,943.5C 1815.15,955.748 1814.48,968.415 1821,981.5C 1825.81,986.306 1830.64,991.14 1835.5,996C 1841.81,999.634 1848.15,1003.3 1854.5,1007C 1870.79,1014.46 1887.13,1021.79 1903.5,1029C 1905.17,1029.33 1906.83,1029.67 1908.5,1030C 1915.42,1033.96 1922.42,1037.62 1929.5,1041C 1939.93,1047.87 1949.93,1055.2 1959.5,1063C 1985.23,1091.15 1992.4,1123.65 1981,1160.5C 1974.71,1181.44 1963.54,1199.28 1947.5,1214C 1925.76,1231.87 1900.76,1242.03 1872.5,1244.5C 1776.68,1244.66 1680.68,1244.49 1584.5,1244C 1567.26,1242.75 1550.59,1239.09 1534.5,1233C 1527.54,1229.34 1520.54,1225.67 1513.5,1222C 1505.7,1216.86 1498.54,1211.03 1492,1204.5C 1488.77,1198.6 1484.77,1193.27 1480,1188.5C 1468.12,1167.52 1461.46,1144.85 1460,1120.5C 1459.67,952.5 1459.33,784.5 1459,616.5C 1458.05,614.43 1456.55,612.93 1454.5,612C 1444.99,609.955 1435.66,607.289 1426.5,604C 1424.33,602.5 1422.5,600.667 1421,598.5C 1420.33,590.5 1420.33,582.5 1421,574.5C 1421.97,571.379 1423.8,569.046 1426.5,567.5 Z"/></g>
<g><path style="opacity:1" fill="#005f22" d="M 2000.5,567.5 C 2053.83,567.333 2107.17,567.5 2160.5,568C 2163,569.167 2164.83,571 2166,573.5C 2166.33,757.833 2166.67,942.167 2167,1126.5C 2168.2,1133.42 2170.2,1140.09 2173,1146.5C 2192.12,1171.21 2217.29,1180.71 2248.5,1175C 2266.48,1172.93 2280.98,1164.76 2292,1150.5C 2295.01,1143.8 2297.01,1136.8 2298,1129.5C 2298.83,1091.5 2298.67,1053.5 2297.5,1015.5C 2278.78,1003.47 2259.78,991.975 2240.5,981C 2237.61,977.778 2235.11,974.278 2233,970.5C 2231.37,930.2 2231.04,889.866 2232,849.5C 2232.69,846.804 2234.19,844.637 2236.5,843C 2278.17,842.333 2319.83,842.333 2361.5,843C 2362.33,843.833 2363.17,844.667 2364,845.5C 2365.32,897.75 2365.99,950.084 2366,1002.5C 2373.48,1007.3 2380.98,1012.14 2388.5,1017C 2400.74,1023.95 2413.4,1030.12 2426.5,1035.5C 2432.66,956.23 2469.33,896.396 2536.5,856C 2584.45,830.702 2634.45,823.702 2686.5,835C 2722.38,844.376 2749.22,865.21 2767,897.5C 2793.9,875.953 2823.07,857.786 2854.5,843C 2865.36,838.934 2876.36,835.268 2887.5,832C 2895.74,831.367 2903.91,830.534 2912,829.5C 2919.84,830.373 2927.68,831.539 2935.5,833C 2942.67,836.173 2949.34,840.173 2955.5,845C 2962.89,853.052 2970.22,861.052 2977.5,869C 2993.17,878.13 3003.17,873.964 3007.5,856.5C 3006.14,848.721 3004.31,841.055 3002,833.5C 3001.29,812.095 3011.13,797.929 3031.5,791C 3042.35,788.619 3053.02,789.285 3063.5,793C 3068.35,795.59 3073.35,797.924 3078.5,800C 3088.27,806.484 3097.93,813.151 3107.5,820C 3116.24,825.621 3125.74,829.121 3136,830.5C 3159.34,825.795 3169.67,811.461 3167,787.5C 3164.82,780.317 3162.15,773.317 3159,766.5C 3153.14,757.431 3146.81,748.764 3140,740.5C 3133.16,734.123 3126.33,727.789 3119.5,721.5C 3117.38,718.126 3116.04,714.46 3115.5,710.5C 3118.02,697.064 3126.02,691.898 3139.5,695C 3202.21,730.333 3227.38,783.833 3215,855.5C 3209.12,885.306 3194.95,910.139 3172.5,930C 3166.19,933.634 3159.85,937.301 3153.5,941C 3132.47,949.642 3111.47,949.642 3090.5,941C 3080.53,933.69 3071.19,925.69 3062.5,917C 3042.08,909.104 3025.41,913.938 3012.5,931.5C 3010.77,934.287 3009.61,937.287 3009,940.5C 3008.33,1025.5 3008.33,1110.5 3009,1195.5C 3009.37,1196.42 3009.87,1197.25 3010.5,1198C 3019.73,1202.39 3029.39,1205.39 3039.5,1207C 3042.27,1208.47 3044.77,1210.3 3047,1212.5C 3048.57,1220.76 3048.91,1229.09 3048,1237.5C 3046.88,1239.62 3045.38,1241.46 3043.5,1243C 2989.58,1244.66 2935.58,1244.99 2881.5,1244C 2879.67,1243.73 2878.17,1242.89 2877,1241.5C 2875.67,1142.22 2875.01,1042.89 2875,943.5C 2868.73,923.765 2855.23,915.932 2834.5,920C 2813.79,926.932 2794.96,937.099 2778,950.5C 2777.77,972.853 2772.43,993.853 2762,1013.5C 2748.61,1036.55 2730.78,1055.39 2708.5,1070C 2677.43,1088.58 2643.76,1099.58 2607.5,1103C 2596.53,1104.21 2585.53,1104.71 2574.5,1104.5C 2575.43,1110.44 2577.26,1116.11 2580,1121.5C 2596.48,1149 2619.98,1167.83 2650.5,1178C 2691.95,1189.72 2730.62,1183.89 2766.5,1160.5C 2776.66,1152.51 2785.66,1143.34 2793.5,1133C 2810.84,1125.77 2818.68,1131.6 2817,1150.5C 2802.24,1184.26 2778.74,1210.1 2746.5,1228C 2741.5,1231.83 2736.17,1235.17 2730.5,1238C 2660.63,1267.14 2592.3,1262.48 2525.5,1224C 2485.05,1196.56 2456.21,1160.06 2439,1114.5C 2436.83,1105.83 2434.66,1097.16 2432.5,1088.5C 2409.2,1081.95 2387.2,1072.28 2366.5,1059.5C 2365.67,1087.83 2365.17,1116.16 2365,1144.5C 2356.45,1205.06 2321.78,1238.39 2261,1244.5C 2232.67,1244.5 2204.33,1244.5 2176,1244.5C 2161.45,1242.99 2146.95,1240.83 2132.5,1238C 2104.23,1230.01 2080.39,1215.18 2061,1193.5C 2054.09,1183.29 2047.75,1172.63 2042,1161.5C 2038.39,1149.73 2035.72,1137.73 2034,1125.5C 2033.67,956.833 2033.33,788.167 2033,619.5C 2032.93,616.724 2031.77,614.558 2029.5,613C 2019.73,610.412 2010.07,607.412 2000.5,604C 1998.06,603.226 1996.23,601.726 1995,599.5C 1994.33,590.833 1994.33,582.167 1995,573.5C 1995.73,570.309 1997.56,568.309 2000.5,567.5 Z M 2656.5,909.5 C 2688.38,911.246 2702.55,928.246 2699,960.5C 2694.12,976.196 2686.78,990.529 2677,1003.5C 2648.12,1036.23 2611.62,1052.9 2567.5,1053.5C 2566.34,1017.8 2574.5,984.466 2592,953.5C 2601.13,940.706 2611.96,929.54 2624.5,920C 2631.18,917.308 2637.85,914.642 2644.5,912C 2648.64,911.161 2652.64,910.327 2656.5,909.5 Z"/></g>
<g><path style="opacity:1" fill="#005f22" d="M 706.5,829.5 C 734.064,828.452 760.397,834.285 785.5,847C 797.409,854.252 808.743,862.252 819.5,871C 832.026,877.912 841.526,875.078 848,862.5C 850.156,857.367 851.489,852.033 852,846.5C 853.214,844.951 854.714,843.785 856.5,843C 903.25,842.01 949.917,842.344 996.5,844C 997.701,844.903 998.535,846.069 999,847.5C 999.667,856.167 999.667,864.833 999,873.5C 997.442,875.359 995.609,876.859 993.5,878C 983.587,881.311 973.587,884.311 963.5,887C 962.107,888.171 961.273,889.671 961,891.5C 960.015,967.869 960.348,1044.2 962,1120.5C 971.674,1135.41 984.841,1139.58 1001.5,1133C 1005.94,1130.44 1010.61,1128.44 1015.5,1127C 1045.26,1108.22 1072.93,1086.89 1098.5,1063C 1099.45,1062.52 1100.45,1062.35 1101.5,1062.5C 1101.67,1009.17 1101.5,955.832 1101,902.5C 1096.5,896.006 1090.34,893.506 1082.5,895C 1076.88,898.644 1070.88,901.478 1064.5,903.5C 1048.9,900.977 1042.74,891.977 1046,876.5C 1047.94,872.952 1049.61,869.286 1051,865.5C 1069.23,842.979 1092.89,830.979 1122,829.5C 1133.68,830.147 1145.51,831.647 1157.5,834C 1164.45,836.806 1171.11,840.139 1177.5,844C 1189.35,854.567 1198.51,867.067 1205,881.5C 1214.8,892.717 1225.3,893.384 1236.5,883.5C 1244.35,873.765 1252.19,864.098 1260,854.5C 1264.44,851.357 1268.61,847.857 1272.5,844C 1281.03,839.042 1290.03,835.042 1299.5,832C 1307.07,831.356 1314.57,830.523 1322,829.5C 1364.09,830.063 1394.43,849.396 1413,887.5C 1426.73,928.896 1418.56,965.062 1388.5,996C 1383.58,998.916 1378.91,1002.25 1374.5,1006C 1364.97,1011.1 1354.97,1015.1 1344.5,1018C 1336.35,1018.56 1328.68,1019.06 1321.5,1019.5C 1297.78,1016.28 1283.61,1002.94 1279,979.5C 1277.97,970.934 1278.97,962.601 1282,954.5C 1287.19,948.619 1290.36,941.785 1291.5,934C 1290.61,924.216 1285.61,917.55 1276.5,914C 1259.53,911.4 1246.7,917.567 1238,932.5C 1237.46,935.529 1236.79,938.529 1236,941.5C 1235.33,1025.83 1235.33,1110.17 1236,1194.5C 1236.69,1197.06 1238.19,1198.89 1240.5,1200C 1249.67,1203.29 1259,1205.96 1268.5,1208C 1270.11,1209.36 1271.61,1210.86 1273,1212.5C 1274.61,1221.06 1274.94,1229.73 1274,1238.5C 1272.83,1241 1271,1242.83 1268.5,1244C 1214.08,1244.99 1159.75,1244.66 1105.5,1243C 1103.68,1241.2 1102.52,1239.03 1102,1236.5C 1101.67,1200.17 1101.33,1163.83 1101,1127.5C 1089.17,1138 1078,1149.17 1067.5,1161C 1047.14,1180.02 1026.14,1198.35 1004.5,1216C 987.63,1228.82 969.63,1240.15 950.5,1250C 941.626,1253.68 932.459,1256.18 923,1257.5C 908.592,1256.98 895.925,1251.65 885,1241.5C 877.363,1230.21 869.197,1219.38 860.5,1209C 848.471,1200.36 835.804,1199.36 822.5,1206C 812.628,1214.38 802.961,1223.05 793.5,1232C 776.715,1244.88 757.715,1252.55 736.5,1255C 697.642,1260.85 660.642,1253.85 625.5,1234C 582.009,1206.11 552.176,1167.28 536,1117.5C 515.716,1048.53 523.049,982.865 558,920.5C 579.176,886.51 607.676,860.677 643.5,843C 655.293,838.736 667.293,835.07 679.5,832C 688.671,831.359 697.671,830.526 706.5,829.5 Z M 747.5,924.5 C 781.244,922.783 806.744,936.116 824,964.5C 825.7,969.032 826.867,973.698 827.5,978.5C 827.214,1022.41 827.214,1066.24 827.5,1110C 826.098,1118.54 822.931,1126.37 818,1133.5C 795.631,1158.4 767.798,1167.57 734.5,1161C 718.149,1156.82 703.482,1149.49 690.5,1139C 670.293,1118.75 658.459,1094.25 655,1065.5C 649.882,1029.18 656.882,995.513 676,964.5C 694.23,941.093 718.064,927.759 747.5,924.5 Z"/></g>
<g><path style="opacity:1" fill="#005f22" d="M 3363.5,829.5 C 3395.94,828.279 3425.94,836.445 3453.5,854C 3462.44,861.145 3471.78,867.812 3481.5,874C 3490.79,876.242 3497.96,873.409 3503,865.5C 3504.85,859.12 3506.85,852.786 3509,846.5C 3510.21,844.951 3511.71,843.785 3513.5,843C 3559.5,842.333 3605.5,842.333 3651.5,843C 3654.1,843.935 3655.6,845.768 3656,848.5C 3656.94,857.27 3656.61,865.936 3655,874.5C 3644.06,880.036 3632.56,884.203 3620.5,887C 3618.95,888.214 3617.78,889.714 3617,891.5C 3616.67,1033.17 3616.33,1174.83 3616,1316.5C 3611.59,1370.5 3588.42,1414.34 3546.5,1448C 3514.65,1471.62 3478.82,1484.79 3439,1487.5C 3412.77,1487.6 3386.61,1483.43 3360.5,1475C 3323.22,1461.37 3294.06,1437.87 3273,1404.5C 3269.03,1411.63 3264.87,1418.63 3260.5,1425.5C 3255.14,1432.36 3249.97,1439.36 3245,1446.5C 3243.85,1447.74 3242.51,1448.74 3241,1449.5C 3236.5,1456.24 3231.5,1462.58 3226,1468.5C 3218.45,1476.39 3210.61,1483.89 3202.5,1491C 3148.95,1535.95 3088.62,1569.29 3021.5,1591C 2949.55,1613.4 2875.88,1627.06 2800.5,1632C 2751.46,1635.93 2702.13,1636.27 2652.5,1633C 2618.1,1629.91 2583.76,1626.24 2549.5,1622C 2505.68,1615.93 2462.01,1608.93 2418.5,1601C 2343.78,1587.29 2269.11,1573.29 2194.5,1559C 2147.59,1551.13 2100.59,1543.8 2053.5,1537C 2019.35,1533.27 1985.18,1530.43 1951,1528.5C 1933.76,1528.76 1914.93,1529.43 1894.5,1530.5C 1809.89,1532.12 1727.22,1545.95 1646.5,1572C 1580.52,1595.02 1519.52,1627.02 1463.5,1668C 1461.75,1668.47 1460.09,1669.14 1458.5,1670C 1422.98,1697.31 1388.65,1726.31 1355.5,1757C 1348.83,1764 1342.17,1771 1335.5,1778C 1332.83,1779.7 1329.99,1780.87 1327,1781.5C 1323.14,1780.49 1319.3,1779.32 1315.5,1778C 1227.73,1728.95 1139.39,1680.62 1050.5,1633C 1030.19,1621.17 1009.52,1609.84 988.5,1599C 984.387,1595.49 983.554,1591.32 986,1586.5C 1047.76,1535.18 1114.26,1490.68 1185.5,1453C 1340.59,1372.21 1505.59,1323.21 1680.5,1306C 1700.74,1305.53 1720.91,1304.7 1741,1303.5C 1771.59,1304.34 1803.09,1305.18 1835.5,1306C 1896.2,1310.96 1956.53,1318.63 2016.5,1329C 2049.3,1335.36 2081.97,1342.36 2114.5,1350C 2144.95,1357.53 2175.29,1365.53 2205.5,1374C 2297.68,1401.45 2389.68,1429.45 2481.5,1458C 2542.63,1475.03 2604.3,1490.03 2666.5,1503C 2721.67,1512.5 2777.17,1518.66 2833,1521.5C 2883.21,1522.3 2934.05,1518.8 2985.5,1511C 3040.41,1501.92 3092.08,1483.92 3140.5,1457C 3157.93,1445.63 3174.59,1433.29 3190.5,1420C 3210.38,1402 3226.54,1381.16 3239,1357.5C 3241.86,1350.59 3244.53,1343.59 3247,1336.5C 3248.66,1328.89 3249.99,1321.22 3251,1313.5C 3252.56,1311.23 3254.72,1310.07 3257.5,1310C 3268.5,1309.33 3279.5,1309.33 3290.5,1310C 3292,1310.58 3293.33,1311.42 3294.5,1312.5C 3297.18,1358.08 3319.84,1388.58 3362.5,1404C 3371.93,1405.68 3381.43,1406.84 3391,1407.5C 3437.77,1405.06 3467.77,1381.39 3481,1336.5C 3481.75,1327.31 3482.58,1318.14 3483.5,1309C 3483.21,1284.38 3483.21,1259.71 3483.5,1235C 3482.83,1230.8 3481.99,1226.63 3481,1222.5C 3476.83,1218.81 3471.99,1217.64 3466.5,1219C 3457.63,1224.62 3449.3,1230.96 3441.5,1238C 3434.45,1242.19 3427.11,1245.86 3419.5,1249C 3363.07,1265.51 3310.73,1256.17 3262.5,1221C 3215.49,1181.49 3188.99,1130.66 3183,1068.5C 3175.02,986.355 3201.86,918.521 3263.5,865C 3269.09,861.754 3274.42,858.087 3279.5,854C 3296.04,845.151 3313.37,838.151 3331.5,833C 3342.29,831.605 3352.95,830.438 3363.5,829.5 Z M 3403.5,924.5 C 3437.6,922.556 3463.43,935.889 3481,964.5C 3481.74,969.356 3482.57,974.189 3483.5,979C 3482.38,1021.78 3482.38,1064.61 3483.5,1107.5C 3482.7,1112.49 3481.87,1117.49 3481,1122.5C 3470.18,1140.82 3454.68,1153.32 3434.5,1160C 3377.67,1168.98 3338.84,1146.81 3318,1093.5C 3307.2,1057.14 3308.2,1021.14 3321,985.5C 3324.68,978.802 3328.35,972.135 3332,965.5C 3335.06,963.043 3337.39,960.043 3339,956.5C 3356.62,937.941 3378.12,927.275 3403.5,924.5 Z"/></g>
</svg>
