<?xml version="1.0" encoding="UTF-8"?>
<!DOCTYPE svg PUBLIC "-//W3C//DTD SVG 1.1//EN" "http://www.w3.org/Graphics/SVG/1.1/DTD/svg11.dtd">
<svg xmlns="http://www.w3.org/2000/svg" version="1.1" width="3840px" height="2160px" style="shape-rendering:geometricPrecision; text-rendering:geometricPrecision; image-rendering:optimizeQuality; fill-rule:evenodd; clip-rule:evenodd" xmlns:xlink="http://www.w3.org/1999/xlink">
<g><path style="opacity:1" fill="#02873b" d="M 3622.5,819.5 C 3656.57,820.315 3678.07,837.315 3687,870.5C 3690.35,898.13 3680.51,919.464 3657.5,934.5C 3651.58,938.085 3645.24,940.585 3638.5,942C 3610.94,946.146 3589.11,936.646 3573,913.5C 3560.74,889.318 3562.07,865.985 3577,843.5C 3582.16,839.339 3586.99,834.839 3591.5,830C 3601.28,824.572 3611.62,821.072 3622.5,819.5 Z M 3622.5,833.5 C 3631.96,833.359 3640.46,835.359 3648,839.5C 3668.07,850.969 3676.4,868.303 3673,891.5C 3662.14,922.518 3640.64,934.018 3608.5,926C 3581.58,911.931 3573.08,890.431 3583,861.5C 3591.24,845.139 3604.4,835.805 3622.5,833.5 Z M 3616.5,857.5 C 3622.26,857.149 3627.93,857.649 3633.5,859C 3637.64,863.269 3637.3,867.103 3632.5,870.5C 3627.21,871.402 3621.88,871.735 3616.5,871.5C 3616.5,866.833 3616.5,862.167 3616.5,857.5 Z"/></g>
<g><path style="opacity:1" fill="#00873b" d="M 1657.5,834.5 C 1686.12,831.744 1708.28,842.077 1724,865.5C 1736.29,894.211 1731.12,919.211 1708.5,940.5C 1680.46,959.414 1652.8,958.414 1625.5,937.5C 1618.51,930.195 1613.01,921.862 1609,912.5C 1601.63,883.298 1610.46,860.132 1635.5,843C 1642.75,839.645 1650.08,836.812 1657.5,834.5 Z"/></g>
<g><path style="opacity:1" fill="#fe1b22" d="M 293.5,1134.5 C 242.239,1097.19 190.906,1059.86 139.5,1022.5C 204.5,1021.83 269.5,1021.17 334.5,1020.5C 350.432,971.203 366.266,921.87 382,872.5C 386.133,860.435 390.466,848.435 395,836.5C 414.707,898.031 434.541,959.531 454.5,1021C 519.503,1021.17 584.503,1021.67 649.5,1022.5C 596.833,1060.52 544.499,1098.85 492.5,1137.5C 513.059,1199.01 532.892,1260.67 552,1322.5C 499.732,1284.52 447.398,1246.52 395,1208.5C 360.227,1232.47 326.061,1257.31 292.5,1283C 274.366,1295.92 256.199,1308.76 238,1321.5C 237.333,1319.83 237.333,1318.17 238,1316.5C 257.003,1258.8 276.003,1201.14 295,1143.5C 295.236,1141.24 295.736,1139.07 296.5,1137C 295.627,1135.96 294.627,1135.12 293.5,1134.5 Z"/></g>
<g><path style="opacity:1" fill="#00873b" d="M 2557.5,842.5 C 2598.5,842.333 2639.5,842.5 2680.5,843C 2687.8,844.297 2692.63,848.464 2695,855.5C 2695.94,859.114 2696.61,862.781 2697,866.5C 2697.33,941.167 2697.67,1015.83 2698,1090.5C 2723.5,1070.86 2746.84,1048.86 2768,1024.5C 2768.4,1023.13 2768.9,1021.79 2769.5,1020.5C 2765.94,1012.53 2760.11,1007.86 2752,1006.5C 2749.31,1004.81 2747.31,1002.47 2746,999.5C 2745.33,992.167 2745.33,984.833 2746,977.5C 2746.5,972.336 2748,967.503 2750.5,963C 2757.62,961.964 2764.79,961.464 2772,961.5C 2810.78,962.822 2849.28,962.822 2887.5,961.5C 2892.17,961.667 2896.83,961.833 2901.5,962C 2904.01,962.093 2906.17,962.926 2908,964.5C 2913.22,977.745 2913.55,991.078 2909,1004.5C 2899.82,1008.17 2890.65,1012 2881.5,1016C 2876.35,1020.41 2871.01,1024.57 2865.5,1028.5C 2845.87,1046.96 2826.37,1065.62 2807,1084.5C 2806.2,1088.91 2807.2,1092.91 2810,1096.5C 2838.03,1147.24 2866.03,1197.91 2894,1248.5C 2897.17,1251.67 2900.33,1254.83 2903.5,1258C 2913.86,1263.84 2924.53,1269.01 2935.5,1273.5C 2936.88,1276.33 2937.55,1279.33 2937.5,1282.5C 2936.83,1290.82 2936.33,1299.16 2936,1307.5C 2935.52,1313.65 2932.36,1317.48 2926.5,1319C 2889.5,1319.67 2852.5,1319.67 2815.5,1319C 2813.27,1318.44 2811.27,1317.44 2809.5,1316C 2791.08,1281.66 2772.25,1247.5 2753,1213.5C 2744.84,1197.18 2736.18,1181.18 2727,1165.5C 2717.3,1173.51 2707.64,1181.51 2698,1189.5C 2697.1,1205.21 2697.43,1220.87 2699,1236.5C 2700.94,1244.54 2704.1,1252.04 2708.5,1259C 2716.23,1263.7 2724.23,1268.04 2732.5,1272C 2734.49,1273.32 2735.65,1275.15 2736,1277.5C 2736.05,1288.52 2735.38,1299.52 2734,1310.5C 2733.17,1315.33 2730.33,1318.17 2725.5,1319C 2670.17,1319.67 2614.83,1319.67 2559.5,1319C 2556.85,1317.7 2554.19,1316.37 2551.5,1315C 2551.83,1314.67 2552.17,1314.33 2552.5,1314C 2550.26,1306.83 2548.92,1299.49 2548.5,1292C 2548.07,1286.28 2548.57,1280.45 2550,1274.5C 2558.33,1269.5 2566.67,1264.5 2575,1259.5C 2582.03,1250.05 2585.7,1239.38 2586,1227.5C 2586.67,1126.17 2586.67,1024.83 2586,923.5C 2585.95,915.202 2583.79,907.535 2579.5,900.5C 2573.34,895.253 2566.67,890.753 2559.5,887C 2556.64,885.601 2553.64,884.601 2550.5,884C 2549.3,883.097 2548.47,881.931 2548,880.5C 2547.16,871.78 2547.49,863.113 2549,854.5C 2549.67,848.777 2552.5,844.777 2557.5,842.5 Z"/></g>
<g><path style="opacity:1" fill="#00873b" d="M 793.5,843.5 C 854.25,843.008 914.917,843.508 975.5,845C 980.858,857.249 982.192,869.915 979.5,883C 973.702,887.739 967.369,891.739 960.5,895C 951.888,900.784 947.388,908.951 947,919.5C 945.927,934.641 945.427,949.808 945.5,965C 945.88,978.483 945.88,991.483 945.5,1004C 946.303,1008.41 946.803,1012.91 947,1017.5C 948.251,1020.38 950.417,1022.21 953.5,1023C 985.833,1023.67 1018.17,1023.67 1050.5,1023C 1053.58,1022.21 1055.75,1020.38 1057,1017.5C 1058.86,985.319 1058.86,952.653 1057,919.5C 1056.5,909.443 1052.33,901.443 1044.5,895.5C 1037,891.586 1029.67,887.42 1022.5,883C 1022.18,873.664 1022.68,864.164 1024,854.5C 1024.36,850.743 1025.86,847.576 1028.5,845C 1087.47,843.357 1146.47,843.024 1205.5,844C 1209.17,844.333 1212.83,844.667 1216.5,845C 1217,845.5 1217.5,846 1218,846.5C 1221.44,858.726 1222.11,871.06 1220,883.5C 1209.19,888.966 1198.35,894.466 1187.5,900C 1183.45,905.467 1180.95,911.634 1180,918.5C 1178.86,971.314 1178.36,1024.15 1178.5,1077C 1178.35,1129.19 1178.85,1181.36 1180,1233.5C 1180.97,1243.08 1184.63,1251.41 1191,1258.5C 1199.28,1263.11 1207.78,1267.27 1216.5,1271C 1218,1272.5 1219.5,1274 1221,1275.5C 1222.57,1283.76 1222.91,1292.09 1222,1300.5C 1221.09,1306.84 1219.25,1312.84 1216.5,1318.5C 1213.56,1319.24 1210.56,1319.74 1207.5,1320C 1147.5,1320.67 1087.5,1320.67 1027.5,1320C 1023.12,1320.39 1019.62,1318.89 1017,1315.5C 1015.67,1308.17 1014.33,1300.83 1013,1293.5C 1012.33,1287.83 1012.33,1282.17 1013,1276.5C 1013.37,1275.58 1013.87,1274.75 1014.5,1274C 1025.12,1269.36 1035.45,1264.19 1045.5,1258.5C 1051.92,1251.41 1055.76,1243.07 1057,1233.5C 1058.79,1188.8 1058.79,1144.8 1057,1101.5C 1054.74,1099.57 1052.24,1098.07 1049.5,1097C 1017.5,1096.33 985.5,1096.33 953.5,1097C 950.898,1097.88 948.731,1099.38 947,1101.5C 946.817,1109.41 946.317,1117.25 945.5,1125C 945.036,1160.27 945.536,1196.44 947,1233.5C 947.882,1245.21 953.049,1254.37 962.5,1261C 969.379,1264.61 976.379,1267.94 983.5,1271C 985.57,1271.95 987.07,1273.45 988,1275.5C 988.979,1279.67 989.812,1283.84 990.5,1288C 989.781,1297.6 988.281,1307.1 986,1316.5C 985.097,1317.7 983.931,1318.53 982.5,1319C 979.833,1319.33 977.167,1319.67 974.5,1320C 916.93,1320.17 859.43,1320.67 802,1321.5C 796.444,1320.7 790.944,1319.53 785.5,1318C 785.833,1317.67 786.167,1317.33 786.5,1317C 781.476,1303.5 780.309,1289.67 783,1275.5C 784.5,1274 786,1272.5 787.5,1271C 796.692,1267.15 805.526,1262.65 814,1257.5C 821.196,1247.73 824.862,1236.73 825,1224.5C 825.667,1127.17 825.667,1029.83 825,932.5C 825.329,919.818 821.496,908.651 813.5,899C 804.385,894.225 795.052,889.891 785.5,886C 784.667,885.167 783.833,884.333 783,883.5C 780.497,870.892 781.497,858.559 786,846.5C 788.378,845.033 790.878,844.033 793.5,843.5 Z"/></g>
<g><path style="opacity:1" fill="#01873b" d="M 3600.5,844.5 C 3612.17,844.333 3623.84,844.5 3635.5,845C 3648.78,848.588 3654.28,857.088 3652,870.5C 3649.87,874.289 3647.37,877.789 3644.5,881C 3646.21,883.272 3648.05,885.439 3650,887.5C 3651.5,895.675 3654,903.508 3657.5,911C 3657,911.5 3656.5,912 3656,912.5C 3652.67,911.167 3649.33,911.167 3646,912.5C 3644.17,911.897 3642.34,911.23 3640.5,910.5C 3638.48,904.101 3636.32,897.767 3634,891.5C 3629.03,886.044 3622.86,884.21 3615.5,886C 3615.45,893.868 3615.79,901.868 3616.5,910C 3611.35,911.446 3606.02,911.946 3600.5,911.5C 3600.5,889.167 3600.5,866.833 3600.5,844.5 Z M 3616.5,857.5 C 3616.5,862.167 3616.5,866.833 3616.5,871.5C 3621.88,871.735 3627.21,871.402 3632.5,870.5C 3637.3,867.103 3637.64,863.269 3633.5,859C 3627.93,857.649 3622.26,857.149 3616.5,857.5 Z"/></g>
<g><path style="opacity:1" fill="#00873b" d="M 1399.5,956.5 C 1451.83,956.652 1495.33,976.985 1530,1017.5C 1536.65,1026.79 1543.32,1036.12 1550,1045.5C 1555.78,1056.07 1560.78,1067.07 1565,1078.5C 1568.34,1096.31 1562.51,1110.14 1547.5,1120C 1533.37,1127.9 1519.03,1135.57 1504.5,1143C 1481.21,1153.32 1457.55,1162.65 1433.5,1171C 1406.51,1179.61 1379.51,1188.11 1352.5,1196.5C 1349.64,1199.62 1348.81,1203.29 1350,1207.5C 1356.61,1229.44 1370.77,1244.28 1392.5,1252C 1431.64,1263.57 1466.98,1256.57 1498.5,1231C 1500.25,1230.53 1501.91,1229.86 1503.5,1229C 1513.56,1220.34 1523.23,1211.34 1532.5,1202C 1550.26,1200.76 1562.76,1208.26 1570,1224.5C 1572.23,1230.21 1572.56,1235.87 1571,1241.5C 1568.17,1244.33 1566.17,1247.66 1565,1251.5C 1535.15,1290.2 1495.99,1314.37 1447.5,1324C 1425.04,1328.62 1403.37,1329.29 1382.5,1326C 1338.14,1318.4 1300.31,1298.23 1269,1265.5C 1245.79,1237.73 1231.79,1205.73 1227,1169.5C 1218.65,1107.6 1235.32,1053.93 1277,1008.5C 1311.29,976.193 1352.12,958.86 1399.5,956.5 Z M 1390.5,1016.5 C 1414.3,1014.65 1432.13,1023.98 1444,1044.5C 1453.56,1061.05 1456.89,1078.72 1454,1097.5C 1450.13,1105.7 1443.97,1111.53 1435.5,1115C 1414.51,1123 1393.17,1130 1371.5,1136C 1365.15,1137.86 1358.82,1137.86 1352.5,1136C 1344.9,1130.97 1340.73,1123.81 1340,1114.5C 1337.24,1086.51 1342.9,1060.51 1357,1036.5C 1365.37,1025.07 1376.54,1018.4 1390.5,1016.5 Z"/></g>
<g><path style="opacity:1" fill="#00873b" d="M 2365.5,956.5 C 2402.34,956.635 2436.34,967.802 2467.5,990C 2474.7,996.328 2481.87,1002.83 2489,1009.5C 2505.59,1028.34 2518.93,1049.34 2529,1072.5C 2535.83,1090.67 2531.66,1105.84 2516.5,1118C 2511.83,1121 2507.17,1124 2502.5,1127C 2491.87,1132.31 2481.21,1137.65 2470.5,1143C 2459.44,1147.36 2448.44,1152.03 2437.5,1157C 2400.25,1170.53 2362.58,1182.86 2324.5,1194C 2321.8,1194.76 2319.3,1195.93 2317,1197.5C 2316.33,1202.17 2316.33,1206.83 2317,1211.5C 2329.17,1239.53 2350.67,1254.7 2381.5,1257C 2412.92,1259.75 2440.59,1251.08 2464.5,1231C 2471.64,1227.09 2477.97,1222.09 2483.5,1216C 2484.5,1215.67 2485.5,1215.33 2486.5,1215C 2489.98,1210.69 2493.65,1206.52 2497.5,1202.5C 2517.66,1200.5 2530.82,1209.16 2537,1228.5C 2537.67,1232.5 2537.67,1236.5 2537,1240.5C 2533.85,1246.8 2530.18,1252.8 2526,1258.5C 2517.89,1267.95 2509.05,1276.78 2499.5,1285C 2491.19,1290.64 2482.85,1296.3 2474.5,1302C 2464.93,1305.92 2455.6,1310.25 2446.5,1315C 2435.79,1317.57 2425.29,1320.74 2415,1324.5C 2414.67,1324.17 2414.33,1323.83 2414,1323.5C 2386.21,1330.25 2358.04,1329.58 2329.5,1321.5C 2276.07,1308.32 2236.24,1276.99 2210,1227.5C 2188.16,1177.93 2185.16,1127.27 2201,1075.5C 2231,1001.73 2285.83,962.065 2365.5,956.5 Z M 2356.5,1016.5 C 2374.38,1014.4 2389.55,1019.74 2402,1032.5C 2404.16,1036.81 2406.83,1040.81 2410,1044.5C 2419.42,1061.06 2422.75,1078.73 2420,1097.5C 2416.13,1105.7 2409.97,1111.53 2401.5,1115C 2381.78,1122.46 2361.78,1129.13 2341.5,1135C 2321.83,1142.42 2309.99,1135.92 2306,1115.5C 2303.74,1090.42 2307.74,1066.42 2318,1043.5C 2326.62,1028.36 2339.45,1019.36 2356.5,1016.5 Z"/></g>
<g><path style="opacity:1" fill="#00873b" d="M 3103.5,956.5 C 3140.99,956.836 3175.32,968.67 3206.5,992C 3233.65,1015.15 3253.81,1043.32 3267,1076.5C 3271.88,1093.35 3267.38,1107.01 3253.5,1117.5C 3248.3,1121.2 3242.97,1124.7 3237.5,1128C 3215.77,1138.6 3193.77,1148.6 3171.5,1158C 3133.13,1171.46 3094.46,1184.12 3055.5,1196C 3054.67,1196.83 3053.83,1197.67 3053,1198.5C 3052.21,1208.48 3054.88,1217.48 3061,1225.5C 3075.18,1244.68 3094.35,1255.18 3118.5,1257C 3141.16,1259.11 3162.49,1254.78 3182.5,1244C 3202.2,1232.97 3219.53,1218.97 3234.5,1202C 3257.51,1200.84 3270.84,1211.67 3274.5,1234.5C 3274.46,1237.26 3273.96,1239.93 3273,1242.5C 3270.17,1245.33 3268.17,1248.66 3267,1252.5C 3251.23,1272.61 3232.4,1289.11 3210.5,1302C 3180.91,1317.44 3149.41,1326.27 3116,1328.5C 3109.6,1328.25 3102.1,1327.75 3093.5,1327C 3048.02,1321.42 3009.02,1302.76 2976.5,1271C 2947.06,1237.93 2930.9,1199.09 2928,1154.5C 2923.83,1087.92 2947.33,1033.75 2998.5,992C 3030.09,970.081 3065.09,958.247 3103.5,956.5 Z M 3093.5,1016.5 C 3100.42,1016.15 3107.42,1016.65 3114.5,1018C 3122.63,1020.98 3130.13,1025.15 3137,1030.5C 3140.28,1036.11 3143.94,1041.44 3148,1046.5C 3156.26,1062.27 3159.26,1078.93 3157,1096.5C 3155.7,1099.15 3154.37,1101.81 3153,1104.5C 3148.61,1108.61 3143.78,1112.11 3138.5,1115C 3119.82,1122.12 3100.82,1128.45 3081.5,1134C 3073.99,1136.42 3066.33,1137.42 3058.5,1137C 3049.2,1133.36 3044.04,1126.53 3043,1116.5C 3039.31,1086.94 3045.31,1059.6 3061,1034.5C 3069.68,1024.41 3080.51,1018.41 3093.5,1016.5 Z"/></g>
<g><path style="opacity:1" fill="#00873b" d="M 2090.5,1323.5 C 2081.48,1321.49 2072.48,1318.99 2063.5,1316C 2045.09,1306.26 2032.42,1291.59 2025.5,1272C 2026.06,1271.28 2026.39,1270.44 2026.5,1269.5C 2025.89,1266.85 2025.39,1264.19 2025,1261.5C 2024.67,1196.5 2024.33,1131.5 2024,1066.5C 2020.69,1049.19 2010.36,1039.52 1993,1037.5C 1971.13,1040.36 1956.8,1052.36 1950,1073.5C 1949.12,1076.79 1948.45,1080.12 1948,1083.5C 1947.33,1132.83 1947.33,1182.17 1948,1231.5C 1949.31,1240.78 1952.31,1249.45 1957,1257.5C 1965.28,1263.73 1974.12,1269.06 1983.5,1273.5C 1984.68,1276.38 1985.34,1279.38 1985.5,1282.5C 1984.8,1290.49 1984.3,1298.49 1984,1306.5C 1983.82,1313.07 1980.65,1317.24 1974.5,1319C 1918.83,1319.67 1863.17,1319.67 1807.5,1319C 1805.13,1318.46 1803.13,1317.3 1801.5,1315.5C 1799.62,1311.36 1798.45,1307.03 1798,1302.5C 1797.74,1295.64 1797.24,1288.81 1796.5,1282C 1796.92,1279.82 1797.42,1277.65 1798,1275.5C 1807,1269.83 1816,1264.17 1825,1258.5C 1831.77,1249.28 1835.44,1238.95 1836,1227.5C 1836.67,1169.17 1836.67,1110.83 1836,1052.5C 1835.93,1032.14 1826.43,1018.64 1807.5,1012C 1806.11,1010.83 1805.27,1009.33 1805,1007.5C 1804.24,998.459 1804.57,989.459 1806,980.5C 1806.56,976.873 1808.06,973.707 1810.5,971C 1852.12,969.356 1893.79,969.022 1935.5,970C 1937.52,970.45 1939.35,971.283 1941,972.5C 1943.76,979.028 1947.26,985.028 1951.5,990.5C 1971.54,979.762 1992.54,971.262 2014.5,965C 2052.58,953.228 2085.41,961.394 2113,989.5C 2115.49,994.473 2118.49,999.14 2122,1003.5C 2128.48,1018.77 2132.15,1034.77 2133,1051.5C 2133.02,1119.53 2133.69,1187.53 2135,1255.5C 2135.5,1256.5 2136,1257.5 2136.5,1258.5C 2139.45,1259.65 2142.45,1259.82 2145.5,1259C 2150.67,1255.91 2155.67,1252.58 2160.5,1249C 2163.5,1248.33 2166.5,1248.33 2169.5,1249C 2173.32,1252.99 2177.32,1256.82 2181.5,1260.5C 2186.48,1267.41 2186.65,1274.41 2182,1281.5C 2168.49,1303.96 2148.66,1317.46 2122.5,1322C 2111.88,1323.31 2101.21,1323.81 2090.5,1323.5 Z"/></g>
<g><path style="opacity:1" fill="#00873b" d="M 3522.5,960.5 C 3552,957.442 3577.33,966.109 3598.5,986.5C 3605.03,995.203 3610.53,1004.54 3615,1014.5C 3617.96,1025.66 3619.96,1037 3621,1048.5C 3621.17,1103.74 3621.67,1158.9 3622.5,1214C 3621.79,1218.12 3621.46,1222.12 3621.5,1226C 3622.32,1235.42 3622.82,1244.92 3623,1254.5C 3623.27,1256.33 3624.11,1257.83 3625.5,1259C 3628.17,1259.67 3630.83,1259.67 3633.5,1259C 3638.01,1256.25 3642.34,1253.25 3646.5,1250C 3650.07,1248.6 3653.74,1248.26 3657.5,1249C 3662.03,1253.53 3666.53,1258.03 3671,1262.5C 3674.41,1269.82 3673.74,1276.82 3669,1283.5C 3665.09,1288.32 3661.42,1293.32 3658,1298.5C 3630.38,1321.83 3598.88,1329 3563.5,1320C 3542.09,1313.58 3526.59,1300.41 3517,1280.5C 3514.93,1273.99 3513.59,1267.33 3513,1260.5C 3512.67,1195.5 3512.33,1130.5 3512,1065.5C 3508.33,1048.83 3497.99,1039.5 3481,1037.5C 3454.92,1041.91 3439.92,1057.24 3436,1083.5C 3435.33,1132.5 3435.33,1181.5 3436,1230.5C 3437.03,1240.21 3440.03,1249.21 3445,1257.5C 3452.99,1263.49 3461.49,1268.66 3470.5,1273C 3472.4,1275.87 3473.4,1279.03 3473.5,1282.5C 3473.13,1293.69 3471.63,1304.69 3469,1315.5C 3467.2,1317.32 3465.03,1318.48 3462.5,1319C 3407.17,1319.67 3351.83,1319.67 3296.5,1319C 3292.71,1318.21 3289.71,1316.21 3287.5,1313C 3287.83,1312.67 3288.17,1312.33 3288.5,1312C 3287.29,1308.96 3286.46,1305.8 3286,1302.5C 3285.8,1295.45 3285.3,1288.45 3284.5,1281.5C 3285.12,1278.83 3286.12,1276.33 3287.5,1274C 3294.34,1269.75 3301.34,1265.75 3308.5,1262C 3318.07,1252.99 3323.24,1241.82 3324,1228.5C 3324.67,1169.5 3324.67,1110.5 3324,1051.5C 3323.64,1031.58 3314.14,1018.41 3295.5,1012C 3294.54,1010.58 3293.71,1009.08 3293,1007.5C 3292.79,1001.86 3292.62,996.69 3292.5,992C 3292.93,985.287 3294.43,978.787 3297,972.5C 3298.49,970.996 3300.32,970.163 3302.5,970C 3342.83,969.333 3383.17,969.333 3423.5,970C 3425.52,970.45 3427.35,971.283 3429,972.5C 3431.73,978.96 3435.23,984.96 3439.5,990.5C 3451.55,984.142 3463.88,978.309 3476.5,973C 3491.7,967.871 3507.03,963.705 3522.5,960.5 Z"/></g>
<g><path style="opacity:1" fill="#00873b" d="M 1601.5,972.5 C 1642.5,972.333 1683.5,972.5 1724.5,973C 1729.24,974.068 1732.4,976.901 1734,981.5C 1734.33,1063.5 1734.67,1145.5 1735,1227.5C 1735.82,1237.44 1738.48,1246.77 1743,1255.5C 1749.72,1262.2 1757.55,1267.36 1766.5,1271C 1768.71,1272.51 1770.54,1274.34 1772,1276.5C 1772.46,1287.23 1771.79,1297.9 1770,1308.5C 1769.56,1313.58 1767.06,1317.08 1762.5,1319C 1706.5,1319.67 1650.5,1319.67 1594.5,1319C 1590.98,1318.5 1588.48,1316.66 1587,1313.5C 1583.7,1301.39 1582.7,1289.05 1584,1276.5C 1584.37,1275.58 1584.87,1274.75 1585.5,1274C 1595.1,1269.28 1603.94,1263.45 1612,1256.5C 1617.39,1248.33 1620.39,1239.33 1621,1229.5C 1621.97,1168.14 1621.64,1106.81 1620,1045.5C 1619.05,1036.1 1614.89,1028.6 1607.5,1023C 1602.05,1020.74 1597.05,1017.74 1592.5,1014C 1591.02,1011.75 1590.35,1009.25 1590.5,1006.5C 1590.85,998.384 1591.68,990.051 1593,981.5C 1593.67,979.5 1594.33,977.5 1595,975.5C 1597.17,974.269 1599.33,973.269 1601.5,972.5 Z"/></g>
<g><path style="opacity:1" fill="#2b7c38" d="M 293.5,1134.5 C 292.833,1135.17 292.833,1135.17 293.5,1134.5 Z"/></g>
<g><path style="opacity:1" fill="#2b7c38" d="M 2090.5,1323.5 C 2089.83,1324.17 2089.83,1324.17 2090.5,1323.5 Z"/></g>
</svg>
