<?xml version="1.0" encoding="UTF-8"?>
<!DOCTYPE svg PUBLIC "-//W3C//DTD SVG 1.1//EN" "http://www.w3.org/Graphics/SVG/1.1/DTD/svg11.dtd">
<svg xmlns="http://www.w3.org/2000/svg" version="1.1" width="2400px" height="1127px" style="shape-rendering:geometricPrecision; text-rendering:geometricPrecision; image-rendering:optimizeQuality; fill-rule:evenodd; clip-rule:evenodd" xmlns:xlink="http://www.w3.org/1999/xlink">
<g><path style="opacity:0.987" fill="#3c185a" d="M 438.5,99.5 C 440.785,100.957 442.618,102.957 444,105.5C 460.609,132.592 477.776,159.259 495.5,185.5C 522.5,156.833 549.5,128.167 576.5,99.5C 579.199,130.142 581.699,160.809 584,191.5C 601.473,170.027 620.973,150.527 642.5,133C 643.5,132.333 644.5,132.333 645.5,133C 638.427,146.882 632.927,161.382 629,176.5C 624.302,197.356 620.469,218.356 617.5,239.5C 506.156,210.649 399.822,223.316 298.5,277.5C 287.969,247.732 274.469,219.398 258,192.5C 254.358,187.358 250.525,182.358 246.5,177.5C 246.833,177.167 247.167,176.833 247.5,176.5C 273.011,188.411 296.678,203.077 318.5,220.5C 314.318,190.575 309.652,160.575 304.5,130.5C 304.833,130.167 305.167,129.833 305.5,129.5C 338.803,151.637 371.97,173.971 405,196.5C 415.878,164.031 427.045,131.698 438.5,99.5 Z"/></g>
<g><path style="opacity:0.995" fill="#3c185a" d="M 485.5,247.5 C 498.837,247.333 512.171,247.5 525.5,248C 531.897,248.182 538.23,248.848 544.5,250C 566.62,262.503 585.786,278.67 602,298.5C 601.837,284.179 598.67,270.512 592.5,257.5C 631.772,265.101 667.772,280.601 700.5,304C 705.489,307.989 710.155,312.322 714.5,317C 716.025,327.624 718.191,338.124 721,348.5C 726.839,364.368 732.839,380.035 739,395.5C 706.46,363.964 669.794,338.297 629,318.5C 627.815,331.909 624.149,344.576 618,356.5C 617.439,357.022 616.772,357.355 616,357.5C 589.759,338.372 561.759,322.038 532,308.5C 493.624,313.623 458.124,326.456 425.5,347C 420.546,350.285 415.88,353.952 411.5,358C 417.967,362.635 423.967,367.802 429.5,373.5C 405.844,382.152 385.844,395.986 369.5,415C 379.798,417.066 390.131,418.899 400.5,420.5C 403.247,442.497 413.581,459.997 431.5,473C 450.788,485.964 472.121,491.797 495.5,490.5C 518.855,488.94 542.189,488.773 565.5,490C 577.473,491.328 589.139,493.661 600.5,497C 582.435,476.933 563.102,458.267 542.5,441C 528.288,436.725 513.788,435.558 499,437.5C 484.269,437.406 470.102,434.573 456.5,429C 448.5,424.667 440.5,420.333 432.5,416C 431.549,415.282 431.383,414.449 432,413.5C 449.63,396.935 470.463,386.602 494.5,382.5C 516.652,388.576 537.318,397.91 556.5,410.5C 567.026,400.727 579.359,395.727 593.5,395.5C 585.354,403.459 580.688,413.125 579.5,424.5C 579.682,427.226 580.182,429.893 581,432.5C 600.198,450.031 618.365,468.531 635.5,488C 666.664,477.325 698.331,475.992 730.5,484C 733.196,484.765 735.696,485.932 738,487.5C 738.667,486.833 738.667,486.167 738,485.5C 720.887,468.714 702.887,453.047 684,438.5C 676.771,424.536 667.938,411.703 657.5,400C 664.931,401.202 671.931,403.869 678.5,408C 684.276,411.444 689.776,415.277 695,419.5C 702.457,410.333 711.957,405.166 723.5,404C 732.524,412.211 737.024,422.377 737,434.5C 733.424,437.719 730.424,441.053 728,444.5C 737.333,454.5 746.667,464.5 756,474.5C 757.576,468.329 758.742,461.996 759.5,455.5C 759.833,454.5 760.167,453.5 760.5,452.5C 804.967,510.803 832.467,576.469 843,649.5C 848.816,706.969 842.15,762.969 823,817.5C 822.577,818.956 821.744,819.456 820.5,819C 809.983,807.984 799.649,796.817 789.5,785.5C 777.559,882.6 731.559,958.767 651.5,1014C 648.14,1016.55 644.474,1018.38 640.5,1019.5C 636.772,1002.25 632.272,985.252 627,968.5C 552.653,1018.7 471.153,1036.2 382.5,1021C 357.54,1015.52 333.873,1006.68 311.5,994.5C 311.167,994 310.833,993.5 310.5,993C 319.759,953.354 324.759,913.188 325.5,872.5C 325.997,838.644 320.997,805.644 310.5,773.5C 284.828,812.697 254.828,848.53 220.5,881C 212.264,888.405 203.598,895.238 194.5,901.5C 182.731,881.615 174.565,860.282 170,837.5C 160.151,786.526 157.818,735.193 163,683.5C 163.897,675.056 165.397,666.722 167.5,658.5C 167.167,657.833 166.833,657.167 166.5,656.5C 144.273,663.576 121.94,670.243 99.5,676.5C 100.045,654.272 103.879,632.605 111,611.5C 125.773,562.109 149.273,517.609 181.5,478C 167.118,475.714 152.785,473.214 138.5,470.5C 169.332,410.996 211.999,361.663 266.5,322.5C 255.132,347.246 254.632,372.579 265,398.5C 271.589,412.752 281.756,423.252 295.5,430C 282.634,407.305 278.468,383.139 283,357.5C 293.066,326.144 314.233,314.311 346.5,322C 355.537,324.397 363.87,328.23 371.5,333.5C 371.833,333.167 372.167,332.833 372.5,332.5C 361.562,308.955 343.895,295.122 319.5,291C 371.894,264.903 427.227,250.403 485.5,247.5 Z M 629.5,522.5 C 631.527,522.338 633.527,522.505 635.5,523C 650.419,534.127 666.752,542.627 684.5,548.5C 684.667,565.837 684.5,583.17 684,600.5C 660.34,620.806 634.507,637.973 606.5,652C 595.696,656.991 584.363,659.824 572.5,660.5C 570.167,660.167 567.833,659.833 565.5,659.5C 550.913,633.327 536.579,606.993 522.5,580.5C 553.973,553.594 589.64,534.26 629.5,522.5 Z M 750.5,525.5 C 751.5,525.5 752.5,525.5 753.5,525.5C 762.446,548.291 767.446,571.958 768.5,596.5C 768.514,616.604 764.014,635.604 755,653.5C 751.131,644.981 746.465,636.981 741,629.5C 733.371,620.203 725.371,611.203 717,602.5C 715.678,584.833 715.511,567.167 716.5,549.5C 728.707,542.609 740.04,534.609 750.5,525.5 Z M 691.5,654.5 C 699.174,654.334 706.841,654.5 714.5,655C 724.803,667.106 731.803,680.939 735.5,696.5C 729.281,729.329 712.948,755.662 686.5,775.5C 685.544,764.146 684.377,752.812 683,741.5C 681.988,733.602 680.155,725.935 677.5,718.5C 659.432,734.867 638.432,745.367 614.5,750C 606.034,734.04 597.367,718.207 588.5,702.5C 611.068,697.048 631.735,687.548 650.5,674C 658.5,668 666.5,662 674.5,656C 680.348,655.827 686.015,655.327 691.5,654.5 Z"/></g>
<g><path style="opacity:0.995" fill="#3c195a" d="M 965.5,254.5 C 1001.5,254.333 1037.5,254.5 1073.5,255C 1111.74,256.361 1141.24,272.861 1162,304.5C 1175.9,333.246 1178.57,362.913 1170,393.5C 1157.34,429.157 1132.51,450.99 1095.5,459C 1088.9,460.434 1082.23,461.434 1075.5,462C 1059.17,462.5 1042.84,462.667 1026.5,462.5C 1026.5,495.833 1026.5,529.167 1026.5,562.5C 1006.17,562.5 985.833,562.5 965.5,562.5C 965.5,459.833 965.5,357.167 965.5,254.5 Z M 1026.5,312.5 C 1041.5,312.333 1056.5,312.5 1071.5,313C 1104.1,319.952 1116.94,339.785 1110,372.5C 1103.86,389.826 1091.7,399.993 1073.5,403C 1057.87,404.341 1042.2,404.841 1026.5,404.5C 1026.5,373.833 1026.5,343.167 1026.5,312.5 Z"/></g>
<g><path style="opacity:0.983" fill="#3c185a" d="M 1894.5,263.5 C 1915.16,262.403 1928.33,271.737 1934,291.5C 1935.08,322.416 1920.25,335.916 1889.5,332C 1870.51,325.212 1862.35,311.712 1865,291.5C 1869.2,276.127 1879.04,266.794 1894.5,263.5 Z"/></g>
<g><path style="opacity:0.99" fill="#3c185a" d="M 1412.5,354.5 C 1456.68,351.132 1490.18,368.132 1513,405.5C 1524.52,429.284 1528.35,454.284 1524.5,480.5C 1475.17,480.333 1425.83,480.5 1376.5,481C 1386.51,507.628 1405.85,519.628 1434.5,517C 1453.08,515.128 1468.58,507.295 1481,493.5C 1492.14,505.638 1503.64,517.471 1515.5,529C 1491.95,555.017 1462.45,568.184 1427,568.5C 1382.1,568.239 1349.1,548.573 1328,509.5C 1311.56,468.398 1315.89,429.732 1341,393.5C 1359.6,370.948 1383.44,357.948 1412.5,354.5 Z M 1415.5,404.5 C 1441.71,402.264 1459.71,413.264 1469.5,437.5C 1438.83,438.833 1408.17,438.833 1377.5,437.5C 1383.98,419.347 1396.65,408.347 1415.5,404.5 Z"/></g>
<g><path style="opacity:0.991" fill="#3c185a" d="M 1642.5,354.5 C 1671.17,351.755 1693.67,362.088 1710,385.5C 1730.74,358.141 1757.9,348.641 1791.5,357C 1822.71,367.571 1839.88,389.404 1843,422.5C 1843.5,469.165 1843.67,515.832 1843.5,562.5C 1824.5,562.5 1805.5,562.5 1786.5,562.5C 1786.97,518.461 1786.47,474.461 1785,430.5C 1777.64,411.072 1763.81,404.238 1743.5,410C 1733.4,413.768 1727.23,420.934 1725,431.5C 1723.53,475.127 1723.03,518.794 1723.5,562.5C 1704.5,562.5 1685.5,562.5 1666.5,562.5C 1666.67,519.832 1666.5,477.165 1666,434.5C 1661.31,413.895 1648.48,405.395 1627.5,409C 1615.33,411.833 1607.83,419.333 1605,431.5C 1603.53,475.133 1603.03,518.8 1603.5,562.5C 1584.5,562.5 1565.5,562.5 1546.5,562.5C 1546.5,494.833 1546.5,427.167 1546.5,359.5C 1563.17,359.333 1579.84,359.5 1596.5,360C 1598.44,367.928 1600.61,375.761 1603,383.5C 1611.54,367.451 1624.71,357.785 1642.5,354.5 Z"/></g>
<g><path style="opacity:0.989" fill="#3c185a" d="M 2042.5,354.5 C 2085.61,351.332 2118.77,367.665 2142,403.5C 2154.31,427.808 2158.47,453.474 2154.5,480.5C 2105.17,480.333 2055.83,480.5 2006.5,481C 2016.51,507.628 2035.85,519.628 2064.5,517C 2083.08,515.128 2098.58,507.295 2111,493.5C 2122.16,505.622 2133.66,517.455 2145.5,529C 2121.95,555.017 2092.45,568.184 2057,568.5C 2022.73,568.198 1994.06,555.532 1971,530.5C 1946.3,495.475 1941.63,457.808 1957,417.5C 1974.05,380.946 2002.55,359.946 2042.5,354.5 Z M 2045.5,404.5 C 2071.71,402.264 2089.71,413.264 2099.5,437.5C 2068.83,438.833 2038.17,438.833 2007.5,437.5C 2014.01,419.316 2026.68,408.316 2045.5,404.5 Z"/></g>
<g><path style="opacity:0.989" fill="#3d185a" d="M 1289.5,357.5 C 1298.27,357.135 1306.93,357.801 1315.5,359.5C 1315.83,377.845 1315.5,396.179 1314.5,414.5C 1298.57,409.907 1283.24,411.407 1268.5,419C 1256.74,427.8 1250.57,439.633 1250,454.5C 1249.5,490.498 1249.33,526.498 1249.5,562.5C 1230.5,562.5 1211.5,562.5 1192.5,562.5C 1192.5,494.833 1192.5,427.167 1192.5,359.5C 1209.17,359.5 1225.83,359.5 1242.5,359.5C 1244.01,368.885 1245.84,378.218 1248,387.5C 1256.97,370.684 1270.81,360.684 1289.5,357.5 Z"/></g>
<g><path style="opacity:0.981" fill="#3d185a" d="M 2273.5,357.5 C 2282.27,357.135 2290.93,357.801 2299.5,359.5C 2299.83,377.845 2299.5,396.179 2298.5,414.5C 2282.55,409.755 2267.22,411.255 2252.5,419C 2240.99,427.522 2234.82,439.022 2234,453.5C 2233.5,489.832 2233.33,526.165 2233.5,562.5C 2214.5,562.5 2195.5,562.5 2176.5,562.5C 2176.5,494.833 2176.5,427.167 2176.5,359.5C 2193.17,359.5 2209.83,359.5 2226.5,359.5C 2227.75,368.935 2229.59,378.268 2232,387.5C 2240.97,370.684 2254.81,360.684 2273.5,357.5 Z"/></g>
<g><path style="opacity:0.996" fill="#3c185b" d="M 1870.5,359.5 C 1889.5,359.5 1908.5,359.5 1927.5,359.5C 1927.5,427.167 1927.5,494.833 1927.5,562.5C 1908.5,562.5 1889.5,562.5 1870.5,562.5C 1870.5,494.833 1870.5,427.167 1870.5,359.5 Z"/></g>
<g><path style="opacity:0.997" fill="#3d195a" d="M 965.5,594.5 C 985.833,594.5 1006.17,594.5 1026.5,594.5C 1026.5,675.5 1026.5,756.5 1026.5,837.5C 1069.83,837.5 1113.17,837.5 1156.5,837.5C 1156.5,856.5 1156.5,875.5 1156.5,894.5C 1092.83,894.5 1029.17,894.5 965.5,894.5C 965.5,794.5 965.5,694.5 965.5,594.5 Z"/></g>
<g><path style="opacity:0.99" fill="#3c185a" d="M 1262.5,686.5 C 1308.99,683.817 1343.15,702.817 1365,743.5C 1374.2,765.692 1377.04,788.692 1373.5,812.5C 1324.17,812.333 1274.83,812.5 1225.5,813C 1235.77,839.985 1255.44,851.985 1284.5,849C 1301.89,846.972 1316.56,839.639 1328.5,827C 1329.5,826.333 1330.5,826.333 1331.5,827C 1342.32,838.652 1353.32,850.152 1364.5,861.5C 1335.42,892.141 1299.75,904.641 1257.5,899C 1213.2,892.027 1184.37,867.194 1171,824.5C 1159.99,776.634 1173.16,737.134 1210.5,706C 1226.34,695.237 1243.67,688.737 1262.5,686.5 Z M 1265.5,736.5 C 1286.85,734.758 1303.35,742.758 1315,760.5C 1316.67,764.021 1317.84,767.687 1318.5,771.5C 1287.83,771.833 1257.16,771.5 1226.5,770.5C 1232.72,751.273 1245.72,739.94 1265.5,736.5 Z"/></g>
<g><path style="opacity:0.99" fill="#3c185a" d="M 2187.5,686.5 C 2230.08,683.871 2262.91,700.205 2286,735.5C 2298.49,759.772 2302.66,785.439 2298.5,812.5C 2249.17,812.333 2199.83,812.5 2150.5,813C 2160.77,839.985 2180.44,851.985 2209.5,849C 2226.89,846.972 2241.56,839.639 2253.5,827C 2254.5,826.333 2255.5,826.333 2256.5,827C 2267.32,838.652 2278.32,850.152 2289.5,861.5C 2260.42,892.141 2224.75,904.641 2182.5,899C 2138.2,892.027 2109.37,867.194 2096,824.5C 2084.97,776.711 2098.14,737.211 2135.5,706C 2151.34,695.237 2168.67,688.737 2187.5,686.5 Z M 2190.5,736.5 C 2211.85,734.758 2228.35,742.758 2240,760.5C 2241.67,764.021 2242.84,767.687 2243.5,771.5C 2212.83,771.833 2182.16,771.5 2151.5,770.5C 2157.73,751.264 2170.73,739.93 2190.5,736.5 Z"/></g>
<g><path style="opacity:0.992" fill="#3c185a" d="M 1486.5,688.5 C 1507.22,686.939 1526.22,691.772 1543.5,703C 1548.41,707.244 1552.58,712.077 1556,717.5C 1558.15,708.887 1559.99,700.22 1561.5,691.5C 1578.17,691.5 1594.83,691.5 1611.5,691.5C 1611.5,759.167 1611.5,826.833 1611.5,894.5C 1594.83,894.5 1578.17,894.5 1561.5,894.5C 1559.99,886.442 1558.15,878.442 1556,870.5C 1538.49,892.347 1515.66,902.18 1487.5,900C 1445.58,894.079 1416.41,871.579 1400,832.5C 1383.41,779.677 1397.24,736.843 1441.5,704C 1455.48,695.509 1470.48,690.342 1486.5,688.5 Z M 1496.5,740.5 C 1529.67,738.863 1549.51,754.196 1556,786.5C 1557.63,818.1 1543.13,837.6 1512.5,845C 1483.98,847.335 1464.82,835.169 1455,808.5C 1448.25,772.976 1462.08,750.309 1496.5,740.5 Z"/></g>
<g><path style="opacity:0.99" fill="#3c185a" d="M 1728.5,688.5 C 1755.07,686.542 1776.57,695.876 1793,716.5C 1795,708.188 1796.83,699.854 1798.5,691.5C 1815.17,691.5 1831.83,691.5 1848.5,691.5C 1848.67,761.834 1848.5,832.167 1848,902.5C 1842.24,948.271 1817.07,977.437 1772.5,990C 1728.53,1000.73 1688.2,993.063 1651.5,967C 1647.41,963.952 1643.74,960.452 1640.5,956.5C 1650.75,941.657 1661.25,926.99 1672,912.5C 1700.63,940.427 1733.47,946.927 1770.5,932C 1782.79,924.605 1789.95,913.772 1792,899.5C 1792.67,892.167 1792.67,884.833 1792,877.5C 1774.13,895.02 1752.63,902.52 1727.5,900C 1677.05,893.214 1645.88,865.048 1634,815.5C 1626.97,774.919 1638.47,740.753 1668.5,713C 1686.17,698.996 1706.17,690.829 1728.5,688.5 Z M 1735.5,740.5 C 1767.39,739.014 1787.22,753.681 1795,784.5C 1797.51,811.326 1786.68,830.493 1762.5,842C 1735.43,850.2 1713.93,842.7 1698,819.5C 1687,796.097 1689.83,774.597 1706.5,755C 1714.9,747.466 1724.57,742.633 1735.5,740.5 Z"/></g>
<g><path style="opacity:0.989" fill="#3c185b" d="M 1874.5,691.5 C 1893.5,691.5 1912.5,691.5 1931.5,691.5C 1931.33,728.502 1931.5,765.502 1932,802.5C 1934.94,836.228 1953.11,850.061 1986.5,844C 2001.91,838.92 2011.41,828.42 2015,812.5C 2016.47,772.206 2016.97,731.873 2016.5,691.5C 2035.5,691.5 2054.5,691.5 2073.5,691.5C 2073.67,732.168 2073.5,772.835 2073,813.5C 2068.64,857.528 2045.14,885.361 2002.5,897C 1971.42,904.095 1942.09,899.761 1914.5,884C 1887.31,863.448 1874.14,835.948 1875,801.5C 1874.5,764.835 1874.33,728.168 1874.5,691.5 Z"/></g>
</svg>
